<svg width="48" height="48" viewBox="0 0 48 48" fill="none" xmlns="http://www.w3.org/2000/svg">
<g clip-path="url(#clip0_4796_2715)">
<path d="M24 16.9688C21.6738 16.9688 19.7812 18.8613 19.7812 21.1875C19.7812 22.2672 20.1894 23.253 20.8589 24C20.1894 24.747 19.7812 25.7328 19.7812 26.8125C19.7812 29.1387 21.6738 31.0312 24 31.0312C26.3262 31.0312 28.2188 29.1387 28.2188 26.8125C28.2188 25.7328 27.8106 24.747 27.1411 24C27.8107 23.253 28.2188 22.2672 28.2188 21.1875C28.2188 18.8613 26.3262 16.9688 24 16.9688ZM24 19.7812C24.7754 19.7812 25.4062 20.4121 25.4062 21.1875C25.4062 21.9629 24.7754 22.5938 24 22.5938C23.2246 22.5938 22.5938 21.9629 22.5938 21.1875C22.5938 20.4121 23.2246 19.7812 24 19.7812ZM24 28.2188C23.2246 28.2188 22.5938 27.5879 22.5938 26.8125C22.5938 26.0371 23.2246 25.4062 24 25.4062C24.7754 25.4062 25.4062 26.0371 25.4062 26.8125C25.4062 27.5879 24.7754 28.2188 24 28.2188Z" fill="#00AA81"/>
<path d="M24 11.3438C17.0213 11.3438 11.3438 17.0213 11.3438 24C11.3438 30.9787 17.0213 36.6562 24 36.6562C30.9787 36.6562 36.6562 30.9787 36.6562 24C36.6562 17.0213 30.9787 11.3438 24 11.3438ZM24 33.8438C18.5722 33.8438 14.1562 29.4278 14.1562 24C14.1562 18.5722 18.5722 14.1562 24 14.1562C29.4278 14.1562 33.8438 18.5722 33.8438 24C33.8438 29.4278 29.4278 33.8438 24 33.8438Z" fill="#00AA81"/>
<path d="M24 0C10.7241 0 0 10.7273 0 24C0 37.2759 10.7273 48 24 48C37.2759 48 48 37.2727 48 24C48 10.7241 37.2727 0 24 0ZM24 45.1875C12.3172 45.1875 2.8125 35.6828 2.8125 24C2.8125 12.3172 12.3172 2.8125 24 2.8125C35.6828 2.8125 45.1875 12.3172 45.1875 24C45.1875 35.6828 35.6828 45.1875 24 45.1875Z" fill="#00AA81"/>
</g>
<defs>
<clipPath id="clip0_4796_2715">
<rect width="48" height="48" fill="white"/>
</clipPath>
</defs>
</svg>
