<svg width="20" height="20" viewBox="0 0 20 20" fill="none" xmlns="http://www.w3.org/2000/svg">
<path d="M15.2735 10.1468C16.0114 9.09861 16.4453 7.82174 16.4453 6.4453C16.4453 2.89136 13.554 0 10 0C6.44611 0 3.55475 2.89136 3.55475 6.4453C3.55475 7.82174 3.98869 9.09861 4.72662 10.1468V16.2605L7.07037 17.4324V18.5352L10 20L12.9297 18.5352V17.4324L15.2735 16.2605V10.1468ZM10 1.17187C12.9078 1.17187 15.2735 3.53753 15.2735 6.4453C15.2735 9.35307 12.9078 11.7187 10 11.7187C7.09228 11.7187 4.72662 9.35307 4.72662 6.4453C4.72662 3.53753 7.09224 1.17187 10 1.17187ZM5.89849 15.5363V11.4135C6.25845 11.7112 6.65119 11.9706 7.07037 12.1854V16.1222L5.89849 15.5363ZM10 18.6898L8.24224 17.8109V12.6469C8.80122 12.8056 9.39091 12.8906 10 12.8906C10.6092 12.8906 11.1989 12.8056 11.7579 12.6469V17.8109L10 18.6898ZM12.9297 16.1222V12.1854C13.3489 11.9706 13.7416 11.7112 14.1016 11.4135V15.5363L12.9297 16.1222Z" fill="#1A2930"/>
<path d="M8.54643 8.55471C8.85651 8.55471 9.14925 8.48178 9.41409 8.3451V9.37502H8.24221V10.5469H11.7578V9.37502H10.586V8.3451C10.8508 8.48182 11.1435 8.55471 11.4536 8.55471C12.5973 8.55471 13.4931 7.60424 13.4931 6.39088C13.4931 5.06596 12.3982 4.19303 11.1322 3.12455C10.3809 2.49041 10.3713 2.47377 10.0001 2.15436C9.62929 2.47334 9.62179 2.48819 8.86788 3.12459C7.49725 4.28139 6.50702 5.11721 6.50702 6.39088C6.50694 7.60424 7.40276 8.55471 8.54643 8.55471ZM9.62366 4.0201C9.74655 3.91635 9.87163 3.81084 10 3.70166C10.1284 3.81084 10.2534 3.91635 10.3764 4.0201C11.5854 5.04049 12.3212 5.66553 12.3212 6.39088C12.3212 6.88381 12.0232 7.38283 11.4536 7.38283C10.9326 7.38283 10.6743 6.8476 10.5874 6.61748L10.4442 6.25002H9.55581L9.41268 6.61748C9.32577 6.8476 9.06745 7.38283 8.54643 7.38283C7.97682 7.38283 7.67882 6.88381 7.67882 6.39088C7.67882 5.6926 8.31018 5.12869 9.62366 4.0201Z" fill="#1A2930"/>
</svg>
