<svg width="24" height="24" viewBox="0 0 24 24" fill="none" xmlns="http://www.w3.org/2000/svg">
<g clip-path="url(#clip0_4796_2607)">
<path d="M5.67188 0H7.07812V2.85938H5.67188V0Z" fill="#445058"/>
<path d="M0 5.67188H2.85938V7.07812H0V5.67188Z" fill="#445058"/>
<path d="M0.955658 1.95039L1.94988 0.956169L4.05895 3.06524L3.06473 4.05946L0.955658 1.95039Z" fill="#445058"/>
<path d="M16.9219 0H18.3281V2.85938H16.9219V0Z" fill="#445058"/>
<path d="M21.1406 5.67188H24V7.07812H21.1406V5.67188Z" fill="#445058"/>
<path d="M19.9379 3.06716L22.047 0.95809L23.0412 1.95231L20.9321 4.06138L19.9379 3.06716Z" fill="#445058"/>
<path d="M5.67188 21.1406H7.07812V24H5.67188V21.1406Z" fill="#445058"/>
<path d="M0 16.9219H2.85938V18.3281H0V16.9219Z" fill="#445058"/>
<path d="M0.953766 22.0474L3.06284 19.9383L4.05705 20.9326L1.94798 23.0416L0.953766 22.0474Z" fill="#445058"/>
<path d="M16.9219 21.1406H18.3281V24H16.9219V21.1406Z" fill="#445058"/>
<path d="M21.1406 16.9219H24V18.3281H21.1406V16.9219Z" fill="#445058"/>
<path d="M19.9359 20.9348L20.9302 19.9405L23.0392 22.0496L22.045 23.0438L19.9359 20.9348Z" fill="#445058"/>
<path d="M17.9162 5.67188H6.08375L1.19394 10.5617L12 22.9115L22.806 10.5617L17.9162 5.67188ZM9.09505 9.89062L10.97 7.07812H13.03L14.905 9.89062H9.09505ZM15.2041 11.2969L12 19.8412L8.79585 11.2969H15.2041ZM7.29397 11.2969L9.98516 18.4733L3.70574 11.2969H7.29397ZM16.706 11.2969H20.2942L14.0149 18.4733L16.706 11.2969ZM20.1463 9.89062H16.595L14.72 7.07812H17.3338L20.1463 9.89062ZM6.66622 7.07812H9.27997L7.40497 9.89062H3.85372L6.66622 7.07812Z" fill="#445058"/>
</g>
<defs>
<clipPath id="clip0_4796_2607">
<rect width="24" height="24" fill="white"/>
</clipPath>
</defs>
</svg>
