<svg width="24" height="24" viewBox="0 0 24 24" fill="none" xmlns="http://www.w3.org/2000/svg">
<g clip-path="url(#clip0_4796_2597)">
<path d="M8.48438 0.75H9.89062V3.5625H8.48438V0.75Z" fill="#445058"/>
<path d="M2.85938 6.375H5.67188V7.78125H2.85938V6.375Z" fill="#445058"/>
<path d="M3.76779 2.65375L4.76201 1.65953L6.87108 3.7686L5.87686 4.76282L3.76779 2.65375Z" fill="#445058"/>
<path d="M14.1094 0.75H15.5156V3.5625H14.1094V0.75Z" fill="#445058"/>
<path d="M18.3281 6.375H21.1406V7.78125H18.3281V6.375Z" fill="#445058"/>
<path d="M17.1257 3.77L19.2348 1.66093L20.229 2.65515L18.1199 4.76422L17.1257 3.77Z" fill="#445058"/>
<path d="M24 11.2969C24 10.1338 23.0537 9.1875 21.8906 9.1875C20.7275 9.1875 19.7812 10.1338 19.7812 11.2969C19.7812 11.506 19.8123 11.708 19.8692 11.8988L19.0517 12.512C17.7776 10.9663 15.9916 9.83827 13.9448 9.39558L13.5175 8.541C13.8835 8.16145 14.1094 7.64578 14.1094 7.07812C14.1094 5.91502 13.1631 4.96875 12 4.96875C10.8369 4.96875 9.89062 5.91502 9.89062 7.07812C9.89062 7.64578 10.1165 8.16145 10.4825 8.541L10.0552 9.39558C8.00958 9.83803 6.22322 10.9654 4.94831 12.512L4.13077 11.8988C4.18772 11.708 4.21875 11.506 4.21875 11.2969C4.21875 10.1338 3.27248 9.1875 2.10938 9.1875C0.946266 9.1875 0 10.1338 0 11.2969C0 12.3891 0.834375 13.2899 1.89919 13.3957L4.26562 19.8591V23.25H19.7344V19.8591L22.1008 13.3958C23.1656 13.2899 24 12.3891 24 11.2969ZM13.8408 19.0312L12 15.3496L10.1592 19.0312H5.46009L3.27225 13.0556C3.28233 13.0489 3.29236 13.0421 3.3023 13.0353L8.03339 16.5836L11.7397 9.17081C11.8251 9.18141 11.9118 9.18745 12 9.18745C12.0882 9.18745 12.1749 9.18141 12.2603 9.17081L15.9666 16.5836L20.6977 13.0353C20.7076 13.0421 20.7177 13.0489 20.7277 13.0556L18.5399 19.0312H13.8408ZM12 20.9746L11.3799 19.7344L12 18.4941L12.6201 19.7344L12 20.9746ZM21.8906 10.5938C22.2783 10.5938 22.5938 10.9092 22.5938 11.2969C22.5938 11.6846 22.2783 12 21.8906 12C21.5029 12 21.1875 11.6846 21.1875 11.2969C21.1875 10.9092 21.5029 10.5938 21.8906 10.5938ZM17.9244 13.3575L16.4709 14.4476L14.8079 11.1218C16.0087 11.5929 17.0878 12.3643 17.9244 13.3575ZM12 6.375C12.3877 6.375 12.7031 6.69042 12.7031 7.07812C12.7031 7.46583 12.3877 7.78125 12 7.78125C11.6123 7.78125 11.2969 7.46583 11.2969 7.07812C11.2969 6.69042 11.6123 6.375 12 6.375ZM9.19209 11.1218L7.52911 14.4476L6.07556 13.3575C6.91223 12.3643 7.9913 11.5929 9.19209 11.1218ZM1.40625 11.2969C1.40625 10.9092 1.72167 10.5938 2.10938 10.5938C2.49708 10.5938 2.8125 10.9092 2.8125 11.2969C2.8125 11.6846 2.49708 12 2.10938 12C1.72167 12 1.40625 11.6846 1.40625 11.2969ZM5.67188 21.8438V20.4375H10.1592L10.8623 21.8438H5.67188ZM18.3281 21.8438H13.1377L13.8408 20.4375H18.3281V21.8438Z" fill="#445058"/>
</g>
<defs>
<clipPath id="clip0_4796_2597">
<rect width="24" height="24" fill="white"/>
</clipPath>
</defs>
</svg>
